<mxfile host="app.diagrams.net" modified="2022-04-27T01:39:01.588Z" agent="5.0 (Windows NT 10.0; Win64; x64) AppleWebKit/537.36 (KHTML, like Gecko) Chrome/99.0.4844.51 Safari/537.36 Edg/99.0.1150.39" etag="ELva2HTU1OpPHwxfBFro" version="17.4.6" type="github">
  <diagram id="dvWGVKsw9VtF0XOtR8eE" name="第 1 页">
    <mxGraphModel dx="1422" dy="762" grid="1" gridSize="10" guides="1" tooltips="1" connect="1" arrows="1" fold="1" page="1" pageScale="1" pageWidth="827" pageHeight="1169" math="0" shadow="0">
      <root>
        <mxCell id="0" />
        <mxCell id="1" parent="0" />
        <mxCell id="zzmdypz9upCB9c9cm5wm-1" value="" style="shape=image;verticalLabelPosition=bottom;labelBackgroundColor=default;verticalAlign=top;aspect=fixed;imageAspect=0;image=data:image/png,iVBORw0KGgoAAAANSUhEUgAAAf8AAAG3CAYAAAC6+ly/AAAgAElEQVR4nOzdf1wc9Z0/8FeuidmYTV1IbYAi91iT+GgDJn24OdLCo42WmOxZ7NY9Hj3uGso+fATaR9sFOSU18oDAUvwVexSmV7+35CKIWu4hYlepR1JRefTASjNWaaJeUzpXJEBOA2OCzUS94/sHnXF/zMKy/FiWeT0fDx+G3X3PfD6zMO/Pr5lZNTU1NXXx4kVs2LAB0YhV7MjICFJSUpZ8v6zv0sSyvkuzX9Z3aWJZ36XZL+sbub+KKoqIiIjiFpM/ERGRwTD5ExERGQyTPxERkcEw+RMRERkMkz8REZHBMPkTEREZDJM/ERGRwTD5ExERGQyTPxERkcEw+RMRERkMkz8REZHBrLpw4cJUrAsRjfk80CAesb4rG+u7srG+K1s81nf1hg0b4vIpSoxlLGMZy1jGMpZP9SMiIqIIMPkTEREZDJM/ERGRwTD5ExERGQyTPxERkcEw+RMRERkMkz8REZHBMPkTEREZzOpYF4BI5fP5AAAOhyPgdVEUMTw8HPJ6uG0oioLMzEwcPnwYNTU1sFqt2vuKoqC2thZdXV2zbstut+Nb3/oW7rzzToyOjkZUh4yMDDz44INobGyMaB/qfg4cOKBbl9TUVNhstoi2A0zXr76+Hvn5+QH1DiZJEurr63Hw4MGAm4QIgoCsrKyI9vncc89hy5YtcyofES0PTP60IlmtVni9XtTW1sLpdAYkKLPZjPb2dt3kqN4xS5IktLW14a//+q/R2dkZ8BlZlnHkyBGUl5fDYrGExAJAXV0d6urqtM+3traiqKgIANDU1ISCgoKA2JGRkYjqFW7f/iYnJ5GXlxfwWnJyMgRB0Oo8MDCAnJwcXHXVVdpnJEnC5OQk0tPTIyoLABQXF4e8lpGRgYaGhrDlI6LYY/KnmJMkCW63W+td9/f3Y9WqVfiP//iPgM95PB4AoYksHJPJpCVgf3rJUY/dbtd9vaenB5mZmTMmN1EUQxJjc3Oz7r+9Xi+Sk5MhyzJKS0tx6tSpkO0lJyfjjjvuwKOPPoqampoZ9z1T4yZ45MPj8WjJemBgAO3t7Whvb9c+73K54Ha7w+7L6/Wy508Uh5j8KeasVis6OzsDhv1HRkbwwx/+EID+sL8syygsLNRNlADw4IMPBvysJjiTyTSnnj8wPfyuNjz86b3mnwzVxDlTz18QBC3WYrGgpaVF+9l/2N/n8+HFF1+E1+uFyWQKOA7f//738eabbwaUwz+B+x+DBx98MKD+7777Ln72s59BlmX09/eju7tba1iIooi+vr6Q7RBR/GPyp7gUnCiBj0cQLBYLfvKTn+j2jhVFiWj7VqsVhw4d0n6uqqqCw+EIaYj4N1j+/d//Pdrq4MKFCzh06FDYxoxK7bGrox8JCQlISUkJqK/evL06XRBOU1MTnE7njCMKgiAEjFjo4ZA/UXxYdfbs2Sn1yX7RiFXsfLC+yzP2l7/8Jc6cOYP169fjnXfeQU9Pj+7n7r33Xlx//fUBr12+fBknTpwAAPzf//0f/uqv/gq33nprSOzly5fxb//2b7j55pvh8/nC7sN/P7/85S8BADfffDN+97vf4Z577gn4XElJCW6++Wb86le/gsViwfXXX6/7udn2E+zChQuoqamB3W7HzTffrBt74cIFHDt2DLfffjs++clPAgBaWloCev6f/vSnUV1djWuuuUar/6233oprrrkGV1xxBZqamnDbbbfhlVde0eoJAL/73e/w6quvorCwUNvuDTfcoJU1+Pu9cOECvF4viouLtbIshnj5fV4orO/yj52PWJV5dUpKCi5evIiUlJSoNhCr2JGRkbgrM+sbniiKaGxshN1uR1lZGUZHR2G1WgMWxsmyjKqqKlx33XUB2/Vf4T4wMABFUbBlyxb85je/CblCQFEUbNq0CTt27MDu3bt1yxz8iEx1/ykpKRgdHdVGAYCPe/5qeT71qU8hJSUFKSkp2LdvH4CPV9Z7PJ6wPeLg79e/l/373/8ejY2NAZ9XpxeuvPJKAEBra2vA1QXBc/GiKOKpp55CUVERpqam8N3vfld7LyMjA0lJSSgsLIQgCHjqqae0NRhms1krl9ls1uqnHiv/Ml955ZVYt24dkpKSZu35r/Tf52Cs79Lsl/WNHIf9KebUueWqqioA0wv11q5di6ysLLS2tmoLzlpbW5GTkxMwV682CMrKymC1WjEwMAAAsNlsGB4ehiAIAQvW1GH/hx9+WHdePJjX6w15zePxBMz3q+X2r4/eKvicnJyw+7n33nuRkpKiJf3y8nLk5eXNeskeAGzatAnf+973tMWNPp8vZP/qNAEA3Tl/ldvthiAIEEURAJCWlhawHb16+cvIyJjxfSJaHpj8KeZsNpu2qM1feno6Ojo6Al7378mLoojDhw+HXfnvcDjg8/lQWFiozUNPTExg/fr1cLvd2py+IAhIS0uDw+HQ7fkPDw8H/KzX8w+uj5o8/betUlf1l5SUaL3zV155Bbm5uSgqKoIoipAkCY899lhIAyV4Tn1iYgLvv/9+SL3D3RMhkjUPamNJrYP/6/4NKb1jRUTxgXf4o2XLZDKhsrIS/f39GBoaCkg86jTBY489NmPP2OFwoLq6GiUlJZAkCQMDA9i4caP2vs/nw9jYmDZE/9xzz+km9GhIkoT169fD4/HAZrOhsLAQzz//PHJycgISPwBcc8016Ozs1JK2egWEKIraf+3t7QHX5QPT1+uvX78ep0+fhiAI8Pl88Pl8EAQBhYWFGBsbQ0VFBWw2W8CVBZHwb/QoioL77rsPkiRBFEVtW6IooqKiAoqiQJIk3HfffREvqiSi2GHyp2XL5/MhOzsbmZmZAIDc3FxIkgRgunfd0tIS0apyq9WKRx99FAkJCejv79fm+kVRREdHB8rLy7XL52655RYMDQ1pCU2lJvDi4mLt3zabTZsCsNlsIZcXWq1W3H777RBFEVVVVTh16hR+8IMfAAAOHz6s1SVS4+Pj2Lp1q1ZnRVHQ39+PT33qU2hoaEBubq72WbfbjZaWFq1ev/jFLzA2NobOzk7tPgc2mw379u3DyZMndfc3NDSk/bupqQnbtm2D1WrF5s2bcebMGfzpT39Ceno6zGaztkZj27ZtOH78+JzqRURLj8P+FHPqMPj58+e1+ebi4mJUVVUFDD0XFRWhtrYWr7/+ekQ3+Qk2MTGBzZs3w2KxQJIkHD58GKOjo2Hn4pOSkrTRBv+h/nDUS/30biEcXBf/z6g3+QkWvHbAf94egLYg76tf/aq2In98fFxroPjvOykpCXV1dVAUBWfOnNGd8w++yVBGRgYKCgq0O/+poyMWiwVbt27F6dOnkZGRgW3btmFgYABWqxX79u1DfX09tm/fPufvh4iWzqqpqamp+czdxSp2vqsrWd/lHcv6Ls1+Wd+liWV9l2a/rG/kOOxPRERkMEz+REREBsPkT0REZDBM/kRERAbD5E9ERGQwTP5EREQGw+RPRERkMKsuXLgwFetCRMNo9xVnfVc21ndlY31Xtnis72r1ecDxdlMFxjKWsYxlLGMZy5v8EBERUQSY/ImIiAyGyZ+IiMhgmPyJiIgMhsmfiIjIYJj8iYiIDIbJn4iIyGCY/ImIiAyGyZ+IiMhgmPyJiIgMhsmfiIjIYJj8iYiIDIbJn4iIyGD4SN84wfqubKzvysb6rmzxWF8+0pexjGUsYxnLWIPFctifiIjIYJj8iYiIDIbJn4iIyGCY/ImIiAyGyZ+IiMhgmPyJiIgMhsmfiIjIYJj8iYiIDIbJn4iIyGCY/ImIiAyGyZ+IiMhgmPyJiIgMhsmfiIjIYPhI3zjB+q5srO/KxvqubPFYXz7Sl7GMZSxjGctYg8Vy2J+IiMhgmPyJiIgMhsmfiIjIYJj8iYiIDIbJn4iIyGCY/ImIiAyGyZ+IiMhgmPyJiIgMhsmfiIjIYJj8iYiIDIbJn4iIyGCY/ImIiAyGyZ+IiMhgVp09e3ZKfbJfNGIVOx+s7/KPnQ/Wd/nHzgfru/xj54P1XZrYVVNTU1Px+DjCkZERpKSkLMp+b7/9drz++utRbZuIiBbGjh07cOzYsYg/vxLz0WLFcthfBxM/EVHs8Vy8eFbHugDLmSiKsS4CEZEh2Wy2WBdhRWPPn4iIyGCY/ImIiAyGyZ+IiMhgmPyJiIgMhsmfiIjIYJj8iYiIDIbJn4iIyGCY/ImIiAyGyZ+IiMhgmPyJiIgMhsmfiIjIYFarjwOcz6MMjRZL0yRJwosvvojbb78dgiAgKysLiYmJaGtrQ1lZGZqampCVlRVyj25ZltHa2oqioiKcPn0axcXFuttPTk6GIAiwWq0h74miiL6+Prjd7jmV1+12o6ioCA6HY26VnYEoimHr4C8jIwMNDQ2wWCy624ikPpIkacfXZDJBURTU1tYiMzNz1jrJsowjR46gvLxctwxLTVEU1NfXIz8/X/c7Dkc9BgDQ3t4e9nN2ux2VlZUwmUwBr8uyjKqqKpSVlc24X5/PBwDYt28fmpqaUFBQAIvFEnW5KTpzPVfHY06JRexq9XnA8fZI31jF0sesVisGBga0k+SZM2cgSRLKysq0z2zevHnW7VRVVYUkLvUEG056ejo6Ojrg8/kiSuSyLKO6uhp33HEHnnnmGWzfvj3qE7ckSTh8+DBqamq0bbhcLi1x6yUHNfHOtz6dnZ0AgLy8PIyOjmqvd3V1wePxaD+riW90dBRutzvks/6CG1mCIADAnBpW0VAUBZOTk0hISJhT3MDAALZt2waHw4FDhw6FvB9Nw1CvbG+88Qby8/MjLrfP59O+g5karjQ3czlXx2NOiVUsn+pHUfM/2fmbnJzEN7/5TRw/fhzNzc3a6y6XCwC015qbm+FyudDc3Ky7neTkZOTn52s9dv8EpgpOenonXUVRcOTIETidTuzZswebN29GfX09PB7PnHvAsizj6NGjaGxsnFfvOdxoQXB9/BsVkiThzJkz8Hg8ukkvnOzsbG2kIJheI8vtdkMQBIiiuKhPVpuYmIDZbA4olyzLKC0txalTp7TX/EdMZFlGf38/ysvLI96PIAgBv4eq3t7egJ/9RwrU37Xk5OSIy33p0iXtSaA+nw/V1dVhR3qIYo3Jn6LmcDjgcDi0RoDX69WShc/nQ01NDWw2mzZMW1RUBJPJhIKCgoBh/7S0NK236z/U6p+UZkpgKr1EpjfUb7VaUVZWhpKSkoDeeyRaW1vhdDpDTujNzc0hCSZ4SDojIyPgZ//Erkftwao6OzuxYcMGmEymsA0vdT/+Sae3t3fG4XG1keUvNzcXbW1tSE9Pn/GYRyM4watlq6qqwu7du7Fz507867/+K0wmU8iIyeDgIADAZDKFNKDUegdzu90BxzmSYX91hKW2tlYbKWlubkZycjKys7PR3t6ulVv9Hv2P4fbt29Hd3T33g0O0RJj8aV4EQcDJkydht9tRXFwMl8uFgoICvPHGGwA+fib3pk2b5pRETCaT1ruVJCngvbnM2TY1NekOv1qtVjQ2NqK0tBQ7d+6MaIhY7XkXFBSEvDffYf/ZiKKI5uZm2O12AB83vCIx154/8HGPd3R0dMGHri0WC1paWuDz+ZCamgqbzaY1+mYiyzIaGxuRmpqqvaYe9/ke3+D9nDx5Ejt37sShQ4dQWVkZMOcvCAK8Xi/S09O114MNDAxoDTWi5YjJn6Kmzg23tLRoJ8Th4WHk5OTggQcewJtvvglFUTAwMICNGzcGxJ48eRInT55EQUEBPB5PSC9W/VkdivUf5m5tbUVOTk5IUvJvMKhl27dvH/Ly8sLWwW634+qrr0ZFRYXu4jB/4+Pj2Lp1a0yGcc+cOQOv14sTJ04ACD/lAixMz99kMsFsNmN8fHxR5q0VRcHQ0BB2794NABgaGkJWVtaMMT09PUhNTUVSUtKCl8dfa2srdu7cqfueJEk4fvw40tLSsHnzZoyNjYV8xufzoaOjAw0NDUz+tGwx+VPU1J6uIAhIS0uDzWaDzWaDw+GAoih48803IcuytnBKXZne1dWlJfXjx48HLPhTe4Dqz/4xwcIlv+BV3mo5Z1rtrrewK9jw8DDS0tJ034tm2F8vJpi6TkJd+6Ba7J4/AKSlpWF4eHhR5v1HR0exfv16bfU8MPvi0EuXLqGoqAjPPvtsxPsJN98PhM75A8DNN9+M9PR0XHvttXj11VcDphbU7ZSXl+P8+fOYmJjA5s2bA36XfD4f+vv7tWkLouWKyZ+iFnxiVZOxOveflpaGRx55BMB079JkMqGurg7l5eVobW3V4t544w00NTUFLOjzeDxaD7aurg51dXVhh/slSYp6Ad9CGB4eDmjARDrsP9c5/+D3wl1eGNz4iabnv9gSEhLQ09ODjRs3asP46oK+cPLz80Pe929ABTeuAP35/tLSUpSUlMzYqFEX7gEff0/q9/H1r38dTU1NGBwcDBnRGhoaQmZmJhM/LXtM/hS1oqIijI2Nwel0wmazaQlO7cHt3r0bHR0dKCkpCXsyHBoa0hKkf+9UURQ0NTVpn1NX7Pf29qKwsDAgqVZXV6OkpCQk8Ye7SiB4FMF/oeJMUlNTwyZj/3noSMw0iqBSR1LC0Ws8qPdQUFmtVm3x2lxFMhQfLXXeXxAEbV1GNGZrQAVTF2zabLaor9c3mUxIS0vDj3/845ByL/blkUQLhXf4o6jJsowDBw6go6MDNpsN+/fvx4EDB7Qk3NrailOnTqGjo0Mb2g2OHxsbw9atW2fdlzpqoPa+1MSYk5MTthenJj5RFCGKIrq7u2G329Hd3a29NpfL2RITE3HmzJmA3qd6PXhiYmJE2/CP2b59e8Qx0ZBlGSUlJXjjjTdw3333QZIk+Hw+2Gy2gKQliiIqKioCviP1Wva51EtvOzNRFAVjY2MYHR1FXl6e1ts+efIksrOzte93eHhYN95ms80p2fp8voArS0wmE8rKytDW1hayqHQ2Q0ND2LhxY8C1/oqioKKiIuqGDNFSYvKnqKkLr15//XXY7XZkZ2ejuroaY2NjqKiowNjYGHp7e5GUlITa2tqQpPDSSy8hKSkJiYmJ6O3t1U74NpsN2dnZOHny5Iz7d7lc8Hq9KC4uRmFh4YxDxgshOTkZGzZs0C43AzDj9eDhnD59GpOTk3OK0dPc3KwdL//GkLoITV0Yee2112oxDocDoijC7XZDURTcd999SExMhNPpDPiOoqlXX19fxEPe6lqOpKQkiKKI9vZ2NDQ0YHBwEDt37kRvb6/WYJvrqIoen8+HoaEhLfGrjT71sj232x22AaAeZ3WaRV3jUl1djaqqqkX/vSNaDBz2p6ipl/k99thjWm9fnVN1Op3aidbtdmuX3QHTJ9O8vDxMTk5qc83Bi9L8h/2Dh++9Xm9Aj08URW2/6mV7M82J6y0e1LvLYDCTyYQDBw4EXP8+MDCAvXv3hk14/qvyXS4XLBYL+vr64HQ65z0vPNuwv/9727Zt073qwW63Izk5GVarNWAEpLOzc8Z6BVNHCiIZzVATvzr8DkyP0jz66KOQZTns1MpM/O8doN7oSeX/HajrA1wuV8C8vv8tp4Pr7H+cRVHE8PCw9rtSVlaGjo4O3H777droFFE8WDU1NTUVj7cmHBkZQUpKyqLsVz0h+Z8ciFT+l3KtxLu3LdXtfYlmEs15eCXmo8WKZc+faI7mcpldPGLSJ1r5OOdPRERkMHykLxERLVt8pO/ixPKRvkREtGzxkb6LE8thfyIiIoNh8iciIjIYJn8iIiKDYfInIiIyGCZ/IiIig2HyJyIiMhje4W8GkT7tjYiIKJ6w569jx44dsS4CEZHh8Vy8eNjz13Hs2LGw7/HBEUsTy/ouzX5Z36WJZX2XZr8UOfb8iYiIDIbJn4iIyGCY/ImIiAyGyZ+IiMhgVl24cGEq1oWIhtEWhbC+Kxvru7KxvitbPNaXj/RlLGMZy1jGMtZgsRz2JyIiMhgmfyIiIoNh8iciIjIYJn8iIiKDYfInIiIyGCZ/IiIig2HyJyIiMhgmfyIiIoNh8iciIjIYJn8iIiKDYfInIiIyGCZ/IiIig2HyJyIiMphVZ8+enVKf7BeNWMXOB+u7/GPng/Vd/rHzwfou/9j5YH2XJnbV1NTUVDw+jnBkZAQpKSlLvl/Wd2liWd+l2S/ruzSxrO/S7Jf1jRyH/YmIiAyGyZ+IiMhgmPyJiIgMhsmfiIjIYJj8iYiIDIbJn4iIyGCY/ImIiAxmdawLsJIIgoCsrCzYbDaIooi+vj643e4ZP5+WlgaHwzHrtn/3u9/h1ltvjagcXq8XfX19aG5ujrjsVVVVEZWDiIjiH5N/jPh8Pi05ezyekPczMjLQ0NAAi8WiveZyuWZsTADTDQoAcLvd2mfVG0H4fD4AYJInIjI4Jv8Y8Pl8aGpqQnp6OkpLS2Gz2bT3ZFlGaWkpnE5nQOIHgObm5oh681lZWSGvybKM/v5+lJeXz78CREQU15j850GSJNTX18Pj8YQkan+KoqC2thZ2ux3j4+MYGhpCZ2cngOmeujo9IAgCTp48GdLjV82l5682Ik6dOhXwfldXV0iM3W5HZWUlTCbTrHUmIqL4x+Q/D8nJydiwYQMGBwcDeu/BRkdHcfHiRVitVnzpS1/SXlcUBWNjY+jq6tJ69BkZGfMqk9o4kGUZqampaGhowEcffYSf/exnKCgogMVigSzLOHLkiDYK0NraOq99EhFRfGHynweTyQSn04m+vr4Zk//AwABycnJgMplQUVGh9b6Tk5MhCALq6uq0zwb32IN7+6Ioori4OOy+1F58sLGxMeTk5Gg/z7eRQURE8Wu1+jjA+TzK0MixmzZtwttvv43h4WF88MEH+POf/4yLFy/iz3/+Mz744AO8++67eP311+F0OrF27VrcfffduPvuu7X49957DwcPHkRJSQmuuuoqfOITn8BPfvIT3f19+tOfxnXXXYeXXnppxvJ9+OGHmJyc1P5vMpmQmJgIn8+Hq666Cu+99x4aGxsxOTkJAPjggw+0z89W37liLGMZy1jGLr/Y1erzgOPtEYrLJXbDhg245pprcO7cOVxxxRW48sorsWHDBlx55ZW44oor8Kc//QmXL1/Gli1b8OGHH2LNmjWora0NmXvv7u4O+Dl4Hn5sbAxr167FP/zDP2B0dHTGMtrtdpSUlGDNmjUwm8346KOPMD4+HrDKPyMjA2azGQBwxRVXwGw26875L5fjzFjGMpaxjF24WA77L4CsrCz09fXpvtfX1wen0wmTyYQPP/wQJpMJdXV12lC/3uV3siyHzMNPTEzA4XAgPz8fwOyLDWVZDvg5KSkJ3d3dAXP+RERkTLzD3wKw2WxhV+G73e6w6wEkSUJ3dzd2794d8PrExIQ2JA9MJ/KhoSEkJCRoP1dXV6OwsFBL5hUVFSEJn4iISA97/jEy02V94+PjAcPwPT092LFjBywWCxRFwZEjR+B0OrVGhcViwYEDB7B//37U1NRorw8PDwcs8gu+R4A69WC32xetnkREtPww+UdJvXY/eO4+OMH6/5yTk4PbbrsN3//+9+H1egNGCwRB0D6rXgWgOn/+PNLT0wEATU1N6OrqQldXl+6dAQ8fPgxBEJCQkKBd6veJT3wi7LyQ3hQDERGtbKumpqam4nGxwsjICFJSUpZ8v6zv0sSyvkuzX9Z3aWJZ36XZL+sbOc75ExERGQyTPxERkcEw+RMRERkMkz8REZHBMPkTEREZDJM/ERGRwTD5ExERGQyTPxERkcGsunDhwlSsCxGN+dzcIB6xvisb67uysb4rWzzWl4/0ZSxjGctYxjLWYLEc9iciIjIYPtiHaAV59exHuPely3j+Dx8CAPZsWYN7blyLGz7DP3Ui+hh7/kQrxKtnP8JXjk5iz5bVePvuq/D23Vdhz5bV+MrRSbx69qNYF4+IlhF2B4hWiHtfuoz77evwnV1rtdfUf9/70mW0f5N/7kQ0jWeDMKampvDkk0/ihRdewODgIMbHx2NdJKIZ/dctx/FI3saQ17/5+StwV+dF2GxfjkGpiCK3ceNGpKWlYdeuXXC5XFizZk2si7RiMfnrmJqawte+9jWMjIzEuihERIZx/vx5nD9/Hr/97W/xzDPP4Omnn8bq1UxTi4FHVUdraytGRkawbt063Hnnndi1axdSUlJiXSyiGeU9/j4ef+2DgGF/AHj8tQ9g/+w6tNeKMSoZUWTOnTuHl19+GQ899BBGRkbwyCOPoKioKNbFWpG44E/Hr3/9awDAXXfdhdtuu42Jn+LCPTeuxd1dl/D/XrmMi5encPHyFP7fK5dxd9cl3HPj2tk3QBRjmzZtwte//nXceeedAIDnn38+xiVaudjz1/GHP/wBAPDFL34xxiUhitwNn1mNFw6Yce9L0wkfmL7U74UDZl7qR3Fl165dAICxsbEYl2Tl4hlBx/nz5wFMt0KJ4skNn1nNVf0U99TR1snJyRiXZOXisD8REZHBMPkTEREZDJM/ERGRway+ePEigOmnA0XLaLFERLQ05nqujsecEotYPtKXiIiWrbmcq+Mxp/CRvkRERLQkmPwpJhRFQUVFBQoLCyGKInJzc2Gz2UL+E8XQu9IJggBRFKEoCu677z5IkhRVGURRhM1mgyAIIeUK3q8gCPD5fFHtJxz/YyDLcsC+9OotyzIEQYCiKGG3KYpiQH2i5fP5AuoryzJKSkogSRIEQQj73ahmO17qNtT/cnNz0dbWpvs7YLPZUFFRodU7uI6yLKOioiLgGPq/V1hYGHa7/v8Ffw/qcVDrKUkS7rvvvhmPP1G84AXBtKR8Ph88Hg+Sk5MhCAKsViskSUJ2djbKyspgMpm0z+olMVEUMTY2hvT0dJhMJuzduxdHjx5FZWVlQKyiKKitrUVXV1fYsrhcrpAENjo6CrPZjPT09IDXc3NzcfjwYWzfvh1WqzXa6gPQPwZzEVy3aLcTjizLGBoaCritqslkQnJyMgDA7XbD7XbPax/+2/D5fMgfcOgAACAASURBVBgaGkJ+fj7y8/MBTH/3WVlZsNlsAXGKouDEiRPa5wCgp6cHmZmZsFgsuvtKTU1FQ0ND2PeB6TofOXJkxjIPDAxg27ZtAb9nRPGKPX8/r579CHmPv4//uuU4/uuW48h7/H0+B32BORwO9Pb2Ijs7e86xsiyjpaUFBw4c0E7AapI+fvx4wGdNJhPq6uogiiJEUURVVRUAwOv1aq/pJbDOzk7s3bsXiqIE9Bjz8vJw+vRp5OXlaa9FOxIQzTEQBAE5OTlobm5GTk4OnE4nRFFEb28v9u3bh6NHj8Jms6G4uBjNzc0BPeW56ujoQG5uLkZHR3Hs2LGA91555ZVZR2YioY56uN1uDA0NBXwXark3b94cEnf8+HHs3bsXycnJuO+++yCKIjo6OuDxeCIaNYqEXg9flmV0d3dj+/btUW2TIsfz8NJgz/8vXj37Eb5ydBL329dpj0V9/LUP8JWjk7w96gIJ7rG2t7cjOTkZd9xxR0SxR44cQWFhYUAP12Qyoby8HKWlpUhNTQ3pKYqiiOLiYlRVVQUkA7UsALRRA0mSMDk5ic2bN+PIkSMoKSnRknx/f3/I6MJCUkcDVM3Nzdq/vV4v3G43srKy0NHRgcrKSjzxxBNITExEQkKCVge1sdPX1xd1z1ySJKSlpcFqteLYsWO48sorA46p3W5Hb2/vvI+DyWRCZWUlamtrkZWVBWA6wZaWluLUqVMAPj4G6sgGMH33TYfDAVEUYTab0dfXB6fTiZaWFm3b/t9tcN3cbjdGR0e119Rtq8cxnJ6eHvT29qK3tzfkvaqqKjgcjjkeAdLD8/DSYc//L+596TLut6/Dd3atxYa1q7Bh7Sp8Z9da3G9fh3tfuhzr4q0Iam+8u7sb2dnZaG9vR2dnp24Pz58sy/j2t7+NzMzMkOQOABaLBQ0NDWhsbAyYKvD5fCguLgaAkJ5hdnY2nE4n6urqtESm9vonJiZw0003wWazQZIkdHd3o7y8HCaTKWQufK7UHq9a/7y8PBQWFuL8+fNaA8XlcmkjFC6XS4sdHh7W/n3TTTehra0Np0+fxtjYGGpra3XnvOeqs7MTP/jBD2Cz2bBx40bk5+drIyUulwtOpzPixK/XG1fXLKjHoKurC8XFxbDZbDh58iRSU1PR3d2t7dN/hGRgYAD/8i//ApvNhsbGRnzuc5/D2NgY9u3bF3H9srOz0dvbG7LtmUxMTKCjo0Nr+KixLpcL3d3dTPwLiOfhpcNm1F88/4cP8UjelSGvf/PzV2gPSaGFMTg4iD/+8Y8Rf761tRWf/exn0dTUFNA7Dub1etHX14eKigpUVlbC4XAEnJjVUQCv14vNmzcHJDFZlnHy5Ek0NzfDbrejsrISsiyjvr4eZWVl2nzxvn37UF9fH/Xcv9oAKi8vR1VVFcrKymC1WmdtUCiKgv7+fm3UpLKyEmazGSUlJfB6vQCme6epqalzLpM/t9uNoqIi/PznP9dNqn19fVqDCpheNxFulGGmHnFdXR0qKytRX18Ph8MBn88X0PsWRRHDw8MBZVC/T5/Pp43y7NmzRzt2/vsym81ITEycW+XDePPNN/HZz34WZrMZiqLAZDJpUwKc/19YPA8vHSZ/WnJ9fX0YHR1FXl4eqqqqsH37dvT29qK9vT3ks1lZWSHzwfX19cjPz9eSr/8wb3Ai8p9q8F/gp44mqEP7FosFLS0tkGUZJpMJJpMJTU1NYYd6Jycn5zUNMDg4qG1bTd4zURciulwu5OTk4D//8z9RUFCAsbExrSHT19eH9evXR1Uef3/84x+xa9cumEwmrcGkWqhhf3+XLl3C5OQkNm7cOOtnJUnShv5V822QzUZdeCgIAgYHB2Gz2TA4OAiAyZ/iF4f9/2LPljV4/LUPQl5//LUPsGfLmhiUaGWSZRlnzpxBVlYWWltb0d/fj1deeSVgONZ/mDmYoiiYnJycdY4WmB72V4eWgek5ZHX4OScnB6dOnUJxcbHWcxRFETk5OcjOzobNZkNWVhZ6e3uRl5eH9vZ2eL1erQGRmZkZssgwUuqKdfUYnDhxAm+88YY2TN7c3KwNhavz3p2dnfibv/kbAMC1116LPXv2oKenB11dXWhtbYXJZILb7Y7ouMxEkiQcPHhQW9g4PDysfR9erxdJSUna+oiSkpIFmWpITExEXV1dwGp8/ykOlaIo6OzsRFpaWsCleSaTCfn5+Whra5t1kaM61K9O/eg17MLJzc3F66+/DmC6AauuVaCFw/Pw0mHP/y/uuXEtvnJ0+vGR3/z8FQCmf+Hu7rqEFw6YY1m0FaWnpwdZWVmQJAnr1q1DXV1d2M/qDScPDg4iKSkp5LItvWHe4GF/IPQSMnVkIDU1FX19fdqQv9qjUxQFZrMZCQkJGB8fD9h2tI4fP671UNetW4dDhw7B5/Npw+T+ZVTXMHzuc59DRkYG3nzzTQDQ1iL84he/wCOPPAJJkhak16vWsb29PWR7iYmJOHPmDJ5//nn8+Mc/hiAIM14+Nx9DQ0MhyXV0dFRrcAWv5LdarTCbzTh9+jQ2b94csKjPn/8lpeookh7/kSh1ZMZqtaKzsxOCIGiXm9LC4nl46bDn/xc3fGY1XjhgxvN/+AjJPzyP5B+ex/N/+IgrTBfYpUuXcOONN4a8LoqidnlauJu2yLKMxsbGkKSgKErYk70kSfjWt74VciMgdX/A9PyzzWaD2+1GXV2ddpmfKIoYHR3F5ORkyPCuJEkhl8FFSu8Y6DVUgOkGkDq37d8gOXr0KAoLC5GUlIS9e/eis7MzqrIEs9ls6OzshNVqhSAIAZcMJicnY8OGDXjxxRe1xLiQN72xWCyoq6vD4OAgmpubcfjwYYyOjuLQoUOwWq1a8g23xkA9VuFYrVYcOnRIO44mk0nbtj//BpB6iagqLS0Nzc3Nc1r4SJHjeXjp8Gj6ueEzq9H+zdWw2b4MAGivje46YQovPz8/JFkEX0pnMplw4MABlJSUoKamBlarVbsMzOl0hpzgBwcH8d5774UMeft8PjQ1NeneAEfdRnZ2ttbjVvcBAA0NDZiYmMDhw4dRU1MTcqIfHx/H+++/r90cpry8POJesN4xmIvTp08HXPmgTmUEi6ZswPToSHNzM7xeL2w2m7Y6X103oSa/4eFhmM3mBU2CgiDg5MmT6O7uBgCUlpZi586dAQnffx2C3qLCiYkJANB+H4aHh5GTkzPrvjMyMgB83AACpq8wAD6+DDE1NRW9vb1oampCY2PjrDcPornjeXhpMPlTTImiiKGhoZDhf6vVipqaGrS1teHGG29EXV1dQBIPvi6+qqoq4CSsDpd3dnZqt3g9deoUMjIyUFBQAGD6JN/b24va2lpYLBacOHFCO5mrSaixsVHb7ubNm9HY2KglWq/XC4vFAqfTif379y/oXfZmYrPZQhKuf0JUh6mjKZsgCEhLS9Nun1xRUYHXX38dgiBo31FWVhaKi4u1a+TVxoIevasz1LUczc3NyMjIQEJCQsD9GPwTfUtLC3w+n1Yuj8eje2fGcL8PsizP+w5/fX19OHz4cMAxdLvdWoMguHFCFA9WnT17dkp9sl80YhU7H7Pt99ZbbwUQOq9IFI56p7nFvBFQtJZz2YjCURvZzz77bMQxKzEfLVbsqqmpqal4fBzhyMgIUlJSFmW/6i8dkz8RUWxEcx5eiflosWK54I+IiMhgmPyJiIgMhsmfiIjIYJj8iYiIDIbJn4iIyGCY/HWoDxg5d+5cjEtCNDevnv0IeY+/D0uNDEuNjLzH38erZz+KdbGI5mRkZAQAFuRBVaSPyV+HeiOPl19+OcYlIYrcq2c/wleOTmLPltV4++6r8PbdV2HPltX4ytFJNgAorrzyyisAgKSkpBiXZOXiHf507Ny5EydPnsRDDz2Eqakp7Nq1K+prOImWyr0vXcb99nX4zq612mvqv+996TLav8k/d1rezp07h5dffhk/+tGPAABf+MIXYlyilYtnAx0ulwvPPPMMRkZG8MMf/jDWxSGKyH/dchyP5G0Mef2bn78Cd3Ve1O6VThQPUlJS8L3vfS/WxVixOOyvY82aNXj66afxne98B1u2bIHZzEdJEhEtNrPZDKvVim984xtoa2vD2rVrZw+iqLDnH8bq1atRVFSEoqKigNd5+8iliWV9577fvMffx+OvfRAw7A9MPw/d/tl1uk9Hi+f6xlMs67s0+6XIMfkTrRD33LgWXzk6CWB6qB+YTvx3d13CCwc4ekVEH2PyJ1ohbvjMarxwwIx7X7qMu7suAQD2bFmDFw6YccNn+KdORB9bdeHChalYFyIaRhsaYn1XNtZ3ZWN9V7Z4rO9q9XnA8TanxFjGMpaxjGUsY/lIXyIiIooAkz8REZHBMPkTEREZDJM/ERGRwTD5ExERGQyTPxERkcEw+RMRERkMkz8REZHBMPkTEREZDJM/ERGRwTD5ExERGQyTPxERkcEw+RMRERkMH+kbJ1jflY31XdlY35UtHuvLR/oylrGMZSxjGWuwWA77ExERGQyTPxERkcEw+RMRERkMkz8REZHBMPkTEREZDJM/ERGRwTD5ExERGQyTPxERkcEw+RMRERkMkz8REZHBMPkTEREZDJM/ERGRwTD5ExERGQwf6RsnWN+VjfVd2VjflS0e68tH+jKWsYxlLGMZa7BYDvsTEREZDJM/ERGRwayOdQHilSRJcLvdGB0d1V5zuVxobm7W/bzX68V1110X8rqiKKivr0d+fj6sVmvY/b399tu4//774fF4YLFYtNcFQUBWVhZsNlvIdmtra+F0OnHddddBEISwZauqqoLD4YDP54PH4wl4r6SkBE8++WRAPQEgOTkZgiDMWGYiIlqemPyjZLVa0dnZCZ/PBwBwOBwQRREA4Ha7Az4rCELY7ZhMJmzbtg3V1dVoaGgISOz+3nrrLeTk5AS8L0kSJicnkZ6errvdyspK1NbWwm63w+12h5QLAERRxPDwsPaz2hBQy33ttdeis7Mz4kYKEREtf0z+i8Tn8yE1NTWgR3758mXcf//96Orq0o3JyckJ+Nlut6O8vBxHjhzRYjweDzIyMtDQ0ICBgQG0t7ejvb1di3G5XHC73dqIQF1dHS5evBhxuT0eT0Dv/4EHHkBFRYW2f3VfdrsdlZWVMJlMEW+biIiWByb/JWY2m9He3j5r71mSJLS1tWkxP/3pT7Fr1y4oioKmpibIsoz+/n50d3drowGiKKKvry9kW16vF0888UTAa2ojIVhwz1+vzP5lIyKi+MPkHyVZllFaWopTp04BAJqamrB///4ZY9auXYtDhw4BmB4Z6Ojo0Ib6/acPgOlphUOHDkFRFN1tNTU1wel0hp0mCOb1erVRiHCNBEC/569Sy7h9+/aI9klERMsTk3+ULBYLWlpaQub833nnHQDA0NAQUlNTw8Y7HA7s3r0bpaWlKCkpmfP+y8vL0dPTg+HhYa3BMF8OhyNkW++++y5+85vfLMj2iYhoeWDyXwSKomBychKJiYm67wuCgLGxMVRWVqKlpQUAMDw8HLaxMDk5ie9+97vazxkZGSgoKIDD4YAgCBAEQXcIfy70rl4AgF27diEhIUH7eaYGDRERxQde578IFEXBW2+9herqasiyHPK+2+3GgQMHkJeXp10hMDQ0FHZ76py/KIro7e3Fzp07A7YFQNtOWlpaVGVWr14QRRFerxculwuiKMLj8cBsNs9aRiIiih/s+S+AS5cuoaKiApmZmXC73dpKf5WaoIeHh/H9739fWycAAMXFxdq/g6/Dz8jIwIMPPjjr/oMbAHr89wNML/gLpl72l5qaiubmZjQ3N+Mf//EfcejQIUiShOPHj2sjFuraBSIiij9M/vMgyzI6Ojpw6tQpbUGdKIro6OhATU0NmpqatM8eO3YMmZmZ2jC/Sr0Zz+uvv65705xwC/70+F+vH8x/wd9M8epaBfVqgIsXL2pTAjU1NUhMTMTBgwdDbjZERETxg8P+UZIkCSUlJaiuroYoirDZbBAEAY2NjSE361EUBefOnQuIVxQFFRUVyM7ORmZmJtrb23H06FHYbDYUFhYGTBeoc/42mw3Z2dk4efKkbpnCDcsXFxeHTfxqg0GWZXR3d2NycjJglOC5555DdXU1HnvsMdhsNlitVpSVlaGjoyOyA0VERMvOqrNnz06pT/aLRqxi52Ohy3z58mUIgoCrr74ahYWF2ustLS3aTXF2796N/fv3o6KiAv/zP/+DT3/606iursY111wTso8LFy6gpqYGycnJKC4uxmOPPYZbb70V11xzDS5fvoy2tjbcdtttAICamhr8/ve/BwBcd911OHz4MD75yU+ipaUFN9xwA66//vqQMr/99tuorq4OKAcAvPzyy/jGN76h7V/drp6Zyj/TsVoK/H1e/rHzwfou/9j5YH2XJnbV1NTUVDw+jnBkZAQpKSlLvl/Wd2liWd+l2S/ruzSxrO/S7Jf1jRyH/YmIiAyGyZ+IiMhgmPyJiIgMhsmfiIjIYJj8iYiIDIbJn4iIyGB4h78wpqam8OSTT+KFF17A4OAgxsfHY10kIqIVbePGjUhLS8OuXbvgcrmwZs2aWBdpxWLy1zE1NYWvfe1rGBkZiXVRiIgM4/z58zh//jx++9vf4plnnsHTTz+N1auZphYDj6qO1tZWjIyMYN26dbjzzjuxa9euqG/gQEREkTl37hxefvllPPTQQxgZGcEjjzyCoqKiWBdrReKcv45f//rXAIC77roLt912GxM/EdES2LRpE77+9a/jzjvvBAA8//zzMS7RysXkr+MPf/gDAOCLX/xijEtCRGQ8u3btAgCMjY3FuCQrF5O/jvPnzwOYboUSEdHSUkdbJycnY1ySlYvJn4iIyGBWq48DnM+jDI0WS0RES2Ou5+p4zCmxiF2tPg843h6hGKtYIiJaOnM5V8djTuEjfYmIiGhJ8Dr/Fcbn8wEAHA7HjJ+TJAltbW0oKyuDyWTSXj927BhuuukmWK3WWbcryzKqqqpQVlYW8nn/mH379qG2thZdXV0hn/F6vbDZbDOW7/Tp0+jr64Pb7Q5b546ODjQ0NMBisUAQBGRlZcFms0FRFNTW1iIzM3PWYxKOKIooLi6O+PPJyckQBAEDAwPweDwRxVRVVYUc29bWVhQVFcFkMgXUSc9SfT+iKGrfhc/nC1s/l8sV9vuKhH99wx3/jIwM7TvXq1N9fT3y8/NhtVqhKAqamppQUFAAi8UCSZLgdrsxOjqqxT7wwANobW3FqVOnQvZlt9tRWVkJk8kERVFQX18Ph8OBxx9/XPe4qb8D6nFfqOOmbic3NxeHDx9GTU2N7ner/h0nJCTgyJEjKC8vR09PD4DZzw1kDEz+cSz4hKZHlmXtj9//M1arFWazGU1NTdrJxufz4f3339c9meixWCzIycnBwMDAjDEmkwl1dXXYvHlzQMPi2LFjSExM1K3X0aNH4XQ6YTKZkJ6ejo6ODoiiqJv8MjMzMTQ0hCNHjqCysjJgO7W1tQCA7du3R1QnPWoCmonedzEwMBCS1PWoCSscWZYxNjaGzZs3z6nci/X9qBwOB7Zv3476+np4PB5YLBaIoojGxkYUFBTMqayzCU6K6vH2pygK3njjDeTn58+6PavVis7OToiiiOHhYe072rNnD4DAZB1MbTCkpKQgKSkJ3d3dAX9bauMgnIU4blarFV6vN6CBo+5bbeyqryUlJWFwcBAOhwOCIMBms4U0Tsh4mPzjmMlkQkFBQdjenSRJWu8gXG8HAJqbm3V/juQEsXv3bhw5cgS7d+8O2wDRI8sy3n//fSQnJ4e8d/z4cSQlJWmJ3mQywel0orGxMaSnp5ZT7yStJrV4ovZ4/RN9T08PkpKS5nR8VQv1/ciyjNLSUq1XfPz4ce13o6ysDPv378fo6ChcLhdaWlrmXE6V/+9oc3MzMjIyUFBQgObm5pDfU/U91enTp2E2m7We/nz09fUhLS1N972BgQFs27YtYMQsnGiOW3CMHv9j0dvbC0EQMD4+juLiYtjtdmzduhW5ubna37r/58ONtpGxMPnHOYvFAo/How0Rq2RZxtGjR9HY2Kid9NXeznwJghByIlaHPjMyMvBP//RPqKio0E48HR0deOCBBzA4OIgdO3bAarVicHAQaWlpISdQURTR398f0IMHpnvfTqdT692bTKYZT5LB5QMCh27nSu1RBQ/xRjq8rXfMIomVZRkdHR04deqUbvLTawwtxvdjsVjQ0tICQRAAQBu+zsvLC9iPmqSjHfZXf0eDh/1n6/krioKOjg44nc6AYfX29vaQ8s32eyDLMs6cOYPc3Fzd97q7u1FWVhZRfaI9buEaUJIk4cUXX8Ttt98eUq6jR4/iqaeewrPPPotrr71W+1tXf3edTieTPmmY/ONY8FyoXsJTT/pqa19v/lTt4Y+Pj2tDnerJNzExMWC0QJ1bn+3E3tnZGTAPrfbE+vr6YLPZMDw8DI/HA4/How2N+8/d652Y1aHZvLw8rffkf5JU1wkAwMjICCRJWtChTbPZjPb29pB53Ej597gijX3ppZdw6tSpkFh1qFqSJK33CCzu96MoCsbGxtDV1aX1itX3/MsUXLdo112cOXMGJ06cwJe//OVZe/6nT59GV1cXnE4nHA7HrHP+M+np6cGGDRt0R6UGBwfxxz/+Uft5bGwMOTk5IZ9LTk7Wph+iOW56o3RVVVXYvn07zp07B0VRQtaC1NXVQZblkLKYTCYcOHAAbrcbNTU1SE9PD5kuIONh8o9jkcxFA6Fzyv7z0LPNT6o9Mf9EIUkSHn744YDFguHWFqgURdGuR5VlGQ6HQ5uDTE1NhSRJ6O7uRmpqqu7JVGW32/Hggw9qJzKbzab19NQeXVNTE/bs2YOhoSGthzWfXn+sTE5OYmxsDOXl5RgeHtaS//DwMFJTUwEs3fcDfDzXnZeXh6GhIaxfvx4bN25c8HpLkoTjx49jx44d2nc20++5LMtoaWlBenp6xPsIHjXyeDzwer3YvHmzNtJy4cIFXHfddVpDSt2Pf8JU5/xNJpOWUJOTkwP+pqI9btnZ2dp3qH6/CQkJMJvN2nGanJwMW2//Bo/VasVjjz2m1dlut+s2bsg4mPwNSO3Rqfx7KZFQTxqjo6PaiXBwcHDWeemtW7fi6quvRk9PDxwOR8BCNovFgsbGRgBAXV2d7oIrURTR0dGhDWlKkoTc3FwUFRWFJIfU1FQ4HA4tXhAEfPvb39YdJl+uzGYzysrKMDo6ira2Nuzbtw8A8MYbb8y4gHExvh91G9dffz3eeecdZGVlaSNI/r9L6r9dLpf22lzWXqjfcXZ2Nvbu3YvTp0/PeqXFXXfdhcLCwjmNwqjD8cEL/nw+H1JTU/G3f/u3WLduHYDp3x23242JiQkUFhbixIkTWr3U3y//NQYmkwmHDh3Sfo72uOlRG3OKoqCzsxN79+4NaNBaLJaAv5msrCy0trbC7XZrdSYCmPzjWiQLg1Rer1f791x6/npMJhO2bdumrSJXFAUnTpyYsQExODgIYLoHri5A6+npQWZmpm5CGh4eDrvgKlhwYwbQnwLJyMiIaHvhTE5OhszVznay9hecxCKNtVqt2LRpU8AQ8Ey9tsX4fmRZxptvvokbbrgB77zzDmw2G6qqqgBg1mH/ubDZbLDZbNocefDo1kyXsvb19WkJWv2b0JvzB/QXvUmShKeeego1NTUYGBjQ9uPz+bQGQHJyMk6cOIHx8XFUV1eH/O0F7++f//mfoz5uvb29AdurqqrSEn1rayvGxsa0Xn+4xbzB9fbHhX/GxuQfxyJtyQcP+8+35w9MXzqn9kbVE45eQvJ4POjo6EBqaiqcTicsFgsyMzNRUlKiLVYMNtMlW0lJSdoJUG8BoyiKWu9evYxqoQTP+c9VpHP+aiPBbrdrr9100004evQoLl68iMLCwlmnLxb6+5mYmEBOTg4uXboUEh9ND3Yugnvn/vsMns5JSEjQ/iYURYGiKFrjxWQyhT1u6uWlf/d3fwer1aolf+DjewZIkqQdw8TExID9PPHEE1oDyn9qRZIkXH311VEdN71hf2C6N3/48GEIghDwnv/fgrrO4qabbsK7776r/S2plxTG0wgYLQ7e4c+AqqqqIIoiRFFEb28vsrOzI4rzeDxaT8x/aHlgYCBg+FEdjgemTzbV1dW4ePGiNnycmpqK06dPY+vWrbonoOPHj2NycjIkWQ0PD89YPkmS0NDQgJqaGpSVlaGqqkp3ARQwfXKsqKiIaM0E8PFQbrSJ3+12B/SybDZbyKI8dWGYy+VCd3c3kpKStPcSEhIwPDyMDRs2hJ3jXczvx2q1Ytu2bSH7VH+XvF5vwL+D6zWXYx2sr68PQ0NDIfsURRF1dXW6CV1Nfq2trQCmGy95eXkhZVAXNmZnZ4ddkDjTd6+OnH3hC1+A2WyG0+lEa2urNg0Q7XGzWq04dOiQVrft27eju7sb//3f/61Nj6mGhoa0dRmyLKOwsBB5eXk4cOAA9uzZg61bt+Jb3/oWcnNz0dfXh5aWFiZ+Ys8/XoW79Cyc4BOyHnXI1Z96dYB6gvJ36NAhyLKM/v5+7N69W3vdv0eu9qjU3mpFRQWGh4fR3d2N1tZWFBYWBvRCwq34VxQF/f39yMzMDCm3OuQJIGB1v8fjQWlpKQCE9HRGR0cDEt58qYk7mN6UhB51SFedG/dvtKgLGr1eLxITE5GXl4eioiJtqHgpv59ozOdYq4varFYrCgsLsXv37lkXy6nTYSUlJdrvs/+CN6fTie3bt8PtduuuF4mU/36uvfZaANMjArm5uTh48GDUI096V+TY7Xbcc889+MEPfgCn04nU1FRUV1fjgQceAACsXr0aubm52LhxIx544AE88sgj2tREamoqvv3tb6OkpARZWVlR1ZVWHib/OKUmikgWUoW7g5x6PXhGRgYSEhIC1hCol1Gpdx/z35ZeMvNvhPgPbx8/G249ZwAAEX1JREFUflxL2NnZ2QHvud1uiKKI/fv340c/+hEeffRRJCUlhb3ZSUZGBsrLy7X9qCfJcDcjUqdF/Lej7n98fDzsyEOkghtgLpcrZHvzucPf5OQkDh48iK1btwZ8B+rq/tzcXAiCsCTfTySXTJ4/f16bb1fntQHM6VirDbmNGzciKysr4C54u3bt0ua11ToGf/eKouDhhx9GdXW17u9DQ0ODdsncfO55MTg4iEcffVS7va7/gj+r1apdIhnu1sr+go+b3lU86u+af4PG6XTiq1/9KlwuF3bs2KHVR5ZlvPXWW3jrrbcCGm6iKEIQhBn/Zsg4Vl24cGEq1oWIxmI+me/GG28EgKh7BEREND9qI+ell16KcUlmF49PiuUjfYmIaNniI30XJ5YL/oiIiAyGyZ+IiMhgmPx1qKuJz507F+OSEBEZz8jICABg/fr1MS7JysXkr0NdAfvyyy/HuCRERMbzyiuvAEDAvS5oYTH569i5cycA4KGHHsLTTz+ttUKJiGjxnDt3Dj//+c/xox/9CADwhS98IcYlWrl4nb8Ol8uFZ555BiMjI/jhD38Y6+IQERlOSkoKvve978W6GCsWe/461qxZg6effhrf+c53sGXLFu0RmkREtHjMZjOsViu+8Y1voK2tDWvXro11kVYs9vzDWL16NYqKilBUVBTweqyuyRwZGUFKSsqS75f1XZpY1ndp9sv6Lk1srOpLkWPPn4iIyGCY/ImIiAyGyZ+IiMhgmPyJiIgMhsmfiIjIYPhI3zjB+q5srO/KxvqubPFYXz7Sl7GMZSxjGctYg8Vy2J+IiMhgmPyJiIgMhsmfiIjIYJj8iYiIDIbJn4iIyGCY/ImIiAyGyZ+IiMhgmPyJiIgMhsmfiIjIYJj8iYiIDIbJn4iIyGCY/ImIiAyGyZ+IiMhgVp09e3ZKfbJfNGIVOx+s7/KPnQ/Wd/nHzgfru/xj54P1XZrYVVNTU1Px+DjCkZERpKSkLPl+Wd+liWV9l2a/rO/SxLK+S7Nf1jdyHPYnIiIyGCZ/IiIig2HyJyIiMhgmfyIiIoNh8iciIjIYJn8iIiKDYfInIiIyGCZ/IiIig2HyJyIiMhgmfyIiIoNh8iciIjIYJn8iIiKDYfKfJ1EUUVFRAUVRIEkScnNzYbPZQv4rLCzEe++9BwCQZRmCIEBRFO3niooKyLKs+76iKHjooYcgiiIAQBAE3X3YbDbk5uZCkiTdsgbvh4iIjGnVhQsXpmJdiGjM52lGC+21117Ds88+i4MHD2Lt2rUh71++fBktLS34+7//e1x11VUAgOeeew4AcMstt+BPf/oTfvWrX2H//v0AAK/Xi8zMTHz+85/XtvHuu+/i4Ycfxq233or+/v6Q99X9/PSnP4XT6cTExATuuOOOiOtw8OBB3HLLLXOu+2JZTt/vUmB9VzbWd2WLx/quVp8HHG+PUFwOsZIkoa2tDWVlZfjSl74UNmbNmjW44oorAECLdTgc+PnPf441a9bgxRdfRFZWFjZs2ABRFLFly5aQ7V28eBEPPvgggOnGxpVXXokNGzYElGHNmjVYs2YN1q9fj4yMDG2k4OLFi/jf//1fHDlyBBcvXsTWrVtRUFAAi8Uyp/rOFWMZy1jGMnZ5xq6OKopCSJIEt9uN0dFR7bXk5GQIgoDk5GTtNVmWUVpailOnTgEAjhw5AgBobm4O2J7H40FGRgYefPBBNDY2oqurC1VVVXA4HACAiYkJFBYWattpb29HeXm5btlee+01HD16FDU1NWhqasKtt96K0tJSlJSUwGazLdxBICKiuMDkv4Cys7NRVlYGk8kERVFQX18f8hmLxYKWlhbtZ5/Ph6GhIbjd7rDbraurw5e//GVtDQAAJCQkoKWlJaDnDyBgn2qD5KabbkJLS4s216+WQRAENDY2oqGhIaJRACIiWhmY/JeYIAghvXwgtOevstvtqKysDHm9r68PxcXF2s/t7e3Izs7WhoAEQcCZM2dw7bXX4oknnsATTzyhfbarqytgWzk5OXC5XDM2QIiIaOVg8l9ibrcbbrcbiqKgtrYWTqczYOjd5/MBgDa8H05WVlZIsvYfbVD30dTUhIMHDyI1NTVkG7Iso7W1FUVFRTCZTPOtGhERxQkm/xgQRVHrtQf3wlX9/f2orKwMScptbW0YGxsDEDiKkJycrC0I9Dc2NjZjQ8Jut0dVByIiil9M/guot7cX7e3t2s/JycnIz8/Xfr58+TIqKiqQlJSE3t5e1NfXIz8/H1arVfuM2vPfvn078vLysGPHDlRWVmJsbAyNjY0oLy+H2WxGYmIigOnLAtPT03XXFwBAUlISfD7fjD1/IiIyFib/BeS/4M+fulBv7dq1qKurC3hN/XdtbS26urq0KwSsVis6Ozu1z4yMjMDr9SIxMRGSJGlXEKgjCMnJybo9fPb8iYgoGJP/ArFarTh06JDue4qiaEP1KpPJhE2bNmn/rqur0xoGQOjcf2FhIVJSUiAIAvbu3as1MLxer7ZmwL9B4b/du+++O+5uQEFERIuHyX8R+c/Ju1wu7e5+qo0bNyIvL083NiMjAw0NDQGvSZKE9evXa8leXfDnf4+BjIwMJCQkhL2qIByu9iciMg4m/3mYqbcPfLyyX3Xx4sWA9x0Ox6yr+oP3578+wP91/ymC4H3H460niYho8fDBPkRERAbD5E9ERGQwTP5EREQGw0f6xgnWd2VjfVc21ndli8f68pG+jGUsYxnLWMYaLJbD/kRERAbD5E9ERGQwTP5EREQGw+RPRERkMEz+REREBsPkT0REZDBM/kRERAbDB/uEMTU1hSeffBIvvPACBgcHMT4+HusiERHRX2zcuBHW/9/e/YVEsf5xHP8cMDJS2Ir+uIiw2EVQ1IXWUl1EEBQRZ00ihAj2RiliCbGCWDJa68oiTksXuXH+2UUXUq14URD0B9T+OARBfy6ygZA1L9YkjZZuPBf+Zn67OnrK4zau835B0M7ud+Z5uugzzzPPzAQCqq6uVjgc1qJFi9xuUkEh/B2Mj4/r119/VSqVcrspAAAH6XRa6XRafX196uzs1O3bt91uUkEh/B20t7crlUppyZIlampqUjAYlN/vd7tZAID/GRoaUm9vry5evKhUKqU//vhDdXV1bjerYHDN38GTJ08kSSdOnND+/fsJfgCYZ1avXq2amho1NTVJku7fv+9yiwoL4e/g3bt3kqStW7e63BIAwEyCwaAk6ePHjy63pLAQ/g7S6bSkiTNLAMD8Zc3Mjo2NudySwlI0OjoqaeLtQLPltVoAwPxUiJniRi2v9AUALBiFlim80hcAAPwUhD8AAB5D+AMA4DGEPwAAHkP4AwDgMYQ/AAAeQ/gDeTIyMqJoNKqRkREZhqFkMml/ZxiG4vH4v+4jmUxq3759Mk3T8ftMJqNoNCrDMCRJ8XhcVVVVjn+yj59MJu0a6/NM3xuGoWg0qkwmI9M0tW/fvmmPM1O/Jh8HgDt4sQ+QJ/39/VqzZo18Pt+U7wYGBlRRUTFjvWEYSiQS2r59u65fv64zZ86ouLg45zfFxcU6c+aMWlpaJEmRSESRSMRxXwMDA/bnHTt2qLW1VZWVlfL5fEqn09q5c6ckyTRNvX79Wrt377Z/X1VVJUlqaWnRoUOHtH37djU2Nk5pj2EY6unpUSaTUUtLi+7evevYt1gslvN5w4YN+u233xz/rQDMPcIfyJOenh5t27bN8bsPHz5M+500EaJnz55VPB5XIBBQPB5XIpGYEuzxeFzbtm3ThQsXfqhtPp9PtbW16u/v1/LlyzU0NKSysjJlMhl1dXXp6NGjU4LdGtlPnoWw2mCdIEgTJyUXLlzIaVcymdT9+/fl9/u1efNm7dq164faDGDuEP5AHpimqefPn2vlypVqaGiwt8diMe3Zs0cDAwP6888/JUllZWV2yEsTIZlIJHK2RSIRxeNxxeNxx5G9NBHC1j4t4XB4yu+TyeSUkbckdXR02H+39tPc3Kzy8nI1NDTYo3PLnTt31Nraav9+w4YNOnz48JT9WrMAW7ZssQP/y5cvikajjrMZAPKP8Afy4OXLlxoeHlYwGJRhGPa0eygUkmmaunnzpq5du6ZXr15pYGBAgUBAIyMjOn78uMrLy9XR0TElFCORiL0GIPvEIFtbW5s9Arem4CcLhUIKhUKSJtYlNDc3q7Gx0XF/lu7ubiUSiZxtNTU1qquryxn5Z68TkCZOSO7du2e317reHwqFtHHjRh04cED19fV2ewD8HIQ/MMdM09SzZ8+0adMmx++7urr09u1bZTIZ+zq8aZo6e/aszp07lxPCyWRSHz58sEfvoVBIO3bs0PHjx1VbWzurtkUiEQ0ODuZs7+7unramra1N69evz9k2NjamU6dO2XXWTEE4HM45zu7duzU4OKgDBw7k1GfPPMRisSkzHQDyi/AH5tjw8LD27t2rx48f6+vXr4pGo/bCN2vav7q6Wp8+fbIX2gUCAf3999/ftX+fz6e//vpLkr7rjoFsgUBAXV1dkiZmBm7dupUz9T4yMqLW1ladPHkyZ/FdJpPJ2U9JSYnjlL0122AdxzAMVVRUTDuyTyaTKi8vz1kvACD/ilKplEpLS5VKpWa1A7dqJbl2XGAmVVVVymQyevz4saSJoOzo6FBZWZkuX76suro6DQ8P6+nTp/ry5YuWLVv2U9s3eSW+04r8u3fv5lxCsPT399uXEt6/f69Tp07ZswjhcNhxEWMsFnNcY2Bpa2ubdV+AybyUR/+ltsjv92t0dFR+v39WO3CrNpVKuXJcYC5UVlbqypUrqq6untPb27IXF0r/n4a3ZN9FUFtbq56enpwFgdkj//b2djU0NKitrU2VlZXq6+tTX1+fDh8+rDdv3mjJkiX2LX+vXr1yXF8gTSwanGnkD8wlL+XRf6ll2h9wgTXl/2/3+v8op9F6tqqqKnvaf3h42N5uGIZ94hAOh+Xz+XKeGWCaptatW6fGxkYlEgl7hN/d3W3fJTD5RMPCyB+Yfwh/IM/GxsbsBW9lZWXavHmzOjs7dePGDbW3tyuZTM7JavfpbgGUlPOAH8vy5cu1dOlSSZqyUn/ytf9AIKDTp0/LNE2NjY1p/fr1GhwcnPKwn8mr/Z3uAADgPsIfyDPrmn8gEFAmk1EikVAsFrNH17///rtM05zzle7ZK/utZwlkW7ZsmR49eqSrV6861jc3N0+5JPHgwQPV1dWpuLjYPiGQcp8x0NzcPO1dBdOZ/KwDAPn1y/j4+Pjo6KhKS0tntQO3av/rNZaZjpt9nzQAYH6z/s9++PDhgsujfNXyYh8AADyG8AcAwGMIfwAAPIbwBwDAYwh/AAA8hvAHAMBjCH8AADyG8AcAwGMIfwcrVqyQJA0NDbncEgDATKy32lmPqsb3KRodHZU08aSg2VpotRUVFUqn0+rt7VVNTc2sjwEAyK+nT59KklatWiVpfmbKfKwtKi0tde3xgvO1NhgM6sWLF7p48aLGx8cVDAZ5BTAAzCNDQ0Pq7e3VpUuXJMl+0+R8zJT5WMuLfRyEw2F1dnYqlUrp/PnzbjcHADADv9+vY8eO6du3b243pWBwzd/BokWLdPv2bR05ckRr165VSUmJ200CAGQpKSlRZWWlDh48qJs3b2rx4sVuN6mgMPKfRlFRkerr61VfX5+zfSG+xXA+1tLfn3Nc+vtzaunvzzkuvh8jfwAAPIbwBwDAYwh/AAA8hvAHAMBjCH8AADyG8AcAwGMIfwAAPIbwBwDAYwh/AAA8hvAHAMBjfvn8+fO4242YDa89ApL+Lmz0d2GjvwtbIfaXV/pSSy211FJLrcdqmfYHAMBjCH8AADyG8AcAwGMIfwAAPIbwBwDAYwh/AAA8hvAHAMBjCH8AADyG8AcAwGMIfwAAPIbwBwDAYwh/AAA8hvAHAMBjeKVvgaC/Cxv9Xdjo78JWiP3llb7UUksttdRS67Fapv0BAPAYwh8AAI8h/AEA8BjCHwAAj/kH3omrKt9swqUAAAAASUVORK5CYII=;" vertex="1" parent="1">
          <mxGeometry x="140" y="200" width="511" height="439" as="geometry" />
        </mxCell>
      </root>
    </mxGraphModel>
  </diagram>
</mxfile>
